<svg version="1.1" xmlns="http://www.w3.org/2000/svg" xmlns:xlink="http://www.w3.org/1999/xlink" width="800" height="800"><g fill="none" fill-rule="nonzero" stroke="none" stroke-width="none" stroke-linecap="butt" stroke-linejoin="miter" stroke-miterlimit="10" stroke-dasharray="" stroke-dashoffset="0" font-family="none" font-weight="none" font-size="none" text-anchor="none" style="mix-blend-mode: normal"><path d="M92.07986,222.22222l153.96007,-88.88889l153.96007,88.88889l0,177.77778l-153.96007,88.88889l-153.96007,-88.88889z" stroke="#ff0000" stroke-width="0"/><path d="M468.34947,419.62498l-127.92617,123.44972l-170.87368,-49.06246l-42.9475,-172.51217l127.92617,-123.44972l170.87368,49.06246z" stroke="#d9d1cd" stroke-width="0.7"/><path d="M469.3714,415.63327l-120.56127,130.6519l-173.4285,-39.08317l-52.86723,-169.73507l120.56127,-130.6519l173.4285,39.08317z" stroke="#f38947" stroke-width="0.7"/><path d="M470.16041,411.58906l-112.79157,137.41543l-175.40104,-28.97266l-62.60946,-166.38808l112.79157,-137.41543l175.40104,28.97266z" stroke="#4b5260" stroke-width="0.7"/><path d="M470.71387,407.50595l-104.64319,143.71758l-176.78467,-18.76487l-72.14148,-162.48245l104.64319,-143.71758l176.78467,18.76487z" stroke="#b0a49c" stroke-width="0.7"/><path d="M471.0299,403.39763l-96.14346,149.5372l-177.57474,-8.49408l-81.43128,-158.03128l96.14346,-149.5372l177.57474,8.49408z" stroke="#c21b06" stroke-width="0.7"/><path d="M471.10744,399.27791l-87.32093,154.85475l-177.76861,1.80523l-90.44768,-153.04952l87.32093,-154.85475l177.76861,-1.80523z" stroke="#45979b" stroke-width="0.7"/><path d="M470.94625,395.16061l-78.20522,159.65238l-177.36563,12.09848l-99.1604,-147.5539l78.20522,-159.65238l177.36563,-12.09848z" stroke="#d9d1cd" stroke-width="0.7"/><path d="M470.54685,391.05956l-68.82694,163.91397l-176.36714,22.35111l-107.54019,-141.56287l68.82694,-163.91397l176.36714,-22.35111z" stroke="#f38947" stroke-width="0.7"/><path d="M469.9106,386.98852l-59.21758,167.62523l-174.77649,32.52869l-115.55892,-135.09654l59.21758,-167.62523l174.77649,-32.52869z" stroke="#4b5260" stroke-width="0.7"/><path d="M469.03962,382.96118l-49.40939,170.77368l-172.59904,42.59706l-123.18965,-128.17663l49.40939,-170.77368l172.59904,-42.59706z" stroke="#b0a49c" stroke-width="0.7"/><path d="M467.93684,378.99104l-39.43531,173.34877l-169.84209,52.52241l-130.40678,-120.82636l39.43531,-173.34877l169.84209,-52.52241z" stroke="#c21b06" stroke-width="0.7"/><path d="M466.60596,375.09143l-29.32882,175.34183l-166.51489,62.27141l-137.18607,-113.07042l29.32882,-175.34183l166.51489,-62.27141z" stroke="#45979b" stroke-width="0.7"/><path d="M465.05145,371.27546l-19.12386,176.74619l-162.62862,71.81134l-143.50476,-104.93485l19.12386,-176.74619l162.62862,-71.81134z" stroke="#d9d1cd" stroke-width="0.7"/><path d="M463.27853,367.55593l-8.8547,177.55712l-158.19633,81.11017l-149.34163,-96.44696l8.8547,-177.55712l158.19633,-81.11017z" stroke="#f38947" stroke-width="0.7"/><path d="M461.29316,363.94533l1.44419,177.77191l-153.23289,90.13666l-154.67709,-87.63525l-1.44419,-177.77191l153.23289,-90.13666z" stroke="#4b5260" stroke-width="0.7"/><path d="M459.10199,360.45579l11.73824,177.38983l-147.75498,98.86053l-159.49322,-78.5293l-11.73824,-177.38983l147.75498,-98.86053z" stroke="#b0a49c" stroke-width="0.7"/><path d="M456.71239,357.09901l21.99287,176.41216l-141.78098,107.25247l-163.77385,-69.1597l-21.99287,-176.41216l141.78098,-107.25247z" stroke="#c21b06" stroke-width="0.7"/><path d="M454.13238,353.88628l32.17367,174.8422l-135.33095,115.28431l-167.50462,-59.55789l-32.17367,-174.8422l135.33095,-115.28431z" stroke="#45979b" stroke-width="0.7"/><path d="M451.37062,350.82837l42.24644,172.6852l-128.42655,122.92908l-170.67298,-49.75611l-42.24644,-172.6852l128.42655,-122.92908z" stroke="#d9d1cd" stroke-width="0.7"/><path d="M448.43638,347.93555l52.17736,169.94841l-121.09096,130.16113l-173.26832,-39.78728l-52.17736,-169.94841l121.09096,-130.16113z" stroke="#f38947" stroke-width="0.7"/><path d="M445.33952,345.21754l61.93311,166.64102l-113.3488,136.95615l-175.28191,-29.68487l-61.93311,-166.64102l113.3488,-136.95615z" stroke="#4b5260" stroke-width="0.7"/><path d="M442.09043,342.68346l71.48091,162.77413l-105.22608,143.29135l-176.70699,-19.48278l-71.48091,-162.77413l105.22608,-143.29135z" stroke="#b0a49c" stroke-width="0.7"/><path d="M438.70002,340.34182l80.78872,158.36073l-96.75006,149.14545l-177.53878,-9.21529l-80.78872,-158.36073l96.75006,-149.14545z" stroke="#c21b06" stroke-width="0.7"/><path d="M435.17968,338.20048l89.82527,153.41564l-87.9492,154.49879l-177.77448,1.08315l-89.82527,-153.41564l87.9492,-154.49879z" stroke="#45979b" stroke-width="0.7"/><path d="M431.54122,336.26664l98.56025,147.95545l-78.85306,159.3334l-177.4133,11.37795l-98.56025,-147.95545l78.85306,-159.3334z" stroke="#d9d1cd" stroke-width="0.7"/><path d="M427.79687,334.54678l106.9643,141.99851l-69.49216,163.63306l-176.45647,21.63455l-106.9643,-141.99851l69.49216,-163.63306z" stroke="#f38947" stroke-width="0.7"/><path d="M423.95918,333.04667l115.00923,135.5648l-59.89795,167.38331l-174.90718,31.81851l-115.00923,-135.5648l59.89795,-167.38331z" stroke="#4b5260" stroke-width="0.7"/><path d="M420.04105,331.77137l122.66801,128.67594l-50.10263,170.57158l-172.77064,41.89564l-122.66801,-128.67594l50.10263,-170.57158z" stroke="#b0a49c" stroke-width="0.7"/><path d="M416.05564,330.72514l129.91493,121.35505l-40.13909,173.18716l-170.05402,51.8321l-129.91493,-121.35505l40.13909,-173.18716z" stroke="#c21b06" stroke-width="0.7"/><path d="M412.01631,329.9115l136.72567,113.62671l-30.04079,175.22126l-166.76645,61.59454l-136.72567,-113.62671l30.04079,-175.22126z" stroke="#45979b" stroke-width="0.7"/><path d="M407.93665,329.33318l143.07735,105.51687l-19.84162,176.66706l-162.91897,71.15018l-143.07735,-105.51687l19.84162,-176.66706z" stroke="#d9d1cd" stroke-width="0.7"/><path d="M403.83033,328.99212l148.94865,97.05276l-9.57583,177.51969l-158.52448,80.46693l-148.94865,-97.05276l9.57583,-177.51969z" stroke="#f38947" stroke-width="0.7"/><path d="M399.71116,328.88948l154.31985,88.2628l0.7221,177.77631l-153.59775,89.51351l-154.31985,-88.2628l-0.7221,-177.77631z" stroke="#4b5260" stroke-width="0.7"/><path d="M395.59295,329.02558l159.17293,79.17649l11.01761,177.43605l-148.15532,98.25956l-159.17293,-79.17649l-11.01761,-177.43605z" stroke="#b0a49c" stroke-width="0.7"/><path d="M391.48955,329.39998l163.49159,69.82435l21.27614,176.50004l-142.21545,106.67569l-163.49159,-69.82435l-21.27614,-176.50004z" stroke="#c21b06" stroke-width="0.7"/><path d="M387.41471,330.01142l167.26132,60.23777l31.46322,174.97144l-135.7981,114.73367l-167.26132,-60.23777l-31.46322,-174.97144z" stroke="#45979b" stroke-width="0.7"/><path d="M383.38213,330.85785l170.46948,50.44895l41.54467,172.85537l-128.92481,122.40642l-170.46948,-50.44895l-41.54467,-172.85537z" stroke="#d9d1cd" stroke-width="0.7"/><path d="M379.40535,331.93642l173.10528,40.49074l51.48663,170.15894l-121.61865,129.6682l-173.10528,-40.49074l-51.48663,-170.15894z" stroke="#f38947" stroke-width="0.7"/><path d="M375.49771,333.24352l175.15989,30.39659l61.25573,166.8912l-113.90416,136.49462l-175.15989,-30.39659l-61.25573,-166.8912z" stroke="#4b5260" stroke-width="0.7"/><path d="M371.67234,334.77475l176.62639,20.20037l70.81916,163.06313l-105.80723,142.86276l-176.62639,-20.20037l-70.81916,-163.06313z" stroke="#b0a49c" stroke-width="0.7"/><path d="M367.94207,336.52497l177.49988,9.93634l80.14482,158.68758l-97.35506,148.75123l-177.49988,-9.93634l-80.14482,-158.68758z" stroke="#c21b06" stroke-width="0.7"/><path d="M364.31945,338.48831l177.77741,-0.36105l89.20139,153.77923l-88.57603,154.14028l-177.77741,0.36105l-89.20139,-153.77923z" stroke="#45979b" stroke-width="0.7"/><path d="M360.81661,340.65817l177.45806,-10.65723l97.95846,148.35457l-79.49959,159.0118l-177.45806,10.65723l-97.95846,-148.35457z" stroke="#d9d1cd" stroke-width="0.7"/><path d="M357.44534,343.02728l176.54289,-20.91763l106.38665,142.43181l-70.15624,163.34944l-176.54289,20.91763l-106.38665,-142.43181z" stroke="#f38947" stroke-width="0.7"/><path d="M354.21695,345.58767l175.03498,-31.1078l114.45764,136.03083l-60.57734,167.13864l-175.03498,31.1078l-114.45764,-136.03083z" stroke="#4b5260" stroke-width="0.7"/><path d="M351.14227,348.33074l172.93939,-41.19353l122.14434,129.17314l-50.79505,170.36667l-172.93939,41.19353l-122.14434,-129.17314z" stroke="#b0a49c" stroke-width="0.7"/><path d="M348.23163,351.2473l170.26315,-51.14095l129.42094,121.88174l-40.84222,173.02269l-170.26315,51.14095l-129.42094,-121.88174z" stroke="#c21b06" stroke-width="0.7"/><path d="M345.4948,354.32755l167.01527,-60.91666l136.26301,114.18113l-30.75226,175.09779l-167.01527,60.91666l-136.26301,-114.18113z" stroke="#45979b" stroke-width="0.7"/><path d="M342.94097,357.56114l163.20662,-70.48785l142.64758,106.09716l-20.55905,176.585l-163.20662,70.48785l-142.64758,-106.09716z" stroke="#d9d1cd" stroke-width="0.7"/><path d="M340.57872,360.93721l158.85002,-79.82237l148.55321,97.65697l-10.29681,177.47933l-158.85002,79.82237l-148.55321,-97.65697z" stroke="#f38947" stroke-width="0.7"/></g></svg>
